<?xml version="1.0" standalone="no"?>
<!DOCTYPE svg PUBLIC "-//W3C//DTD SVG 20010904//EN"
 "http://www.w3.org/TR/2001/REC-SVG-20010904/DTD/svg10.dtd">
<svg version="1.0" xmlns="http://www.w3.org/2000/svg"
 width="270.000000pt" height="270.000000pt" viewBox="0 0 270.000000 270.000000"
 preserveAspectRatio="xMidYMid meet">
<metadata>
Created by potrace 1.14, written by Peter Selinger 2001-2017
</metadata>
<g transform="translate(0.000000,270.000000) scale(0.100000,-0.100000)"
fill="#000000" stroke="none">
<path d="M332 2629 c-100 -19 -192 -95 -241 -198 l-26 -56 0 -1025 0 -1025 29
-60 c38 -76 113 -148 185 -177 l56 -22 990 -1 c545 -1 1010 2 1034 7 105 19
200 95 249 198 l26 55 1 1000 c1 717 -2 1015 -10 1051 -23 104 -94 187 -201
236 l-49 23 -1000 1 c-550 1 -1019 -2 -1043 -7z"/>
</g>
</svg>
